<svg width="1200" height="800" viewBox="0 0 1200 800" fill="none" xmlns="http://www.w3.org/2000/svg">
  <rect width="1200" height="800" rx="48" fill="url(#paint0_linear)"/>
  <rect x="100" y="120" width="1000" height="560" rx="28" fill="#F8FBFF" fill-opacity="0.96"/>
  <rect x="140" y="165" width="210" height="470" rx="20" fill="#EEF5FF"/>
  <rect x="385" y="165" width="675" height="95" rx="20" fill="#FFFFFF"/>
  <rect x="385" y="285" width="320" height="160" rx="20" fill="#E8F7F4"/>
  <rect x="740" y="285" width="320" height="160" rx="20" fill="#EDF2FF"/>
  <rect x="385" y="470" width="675" height="165" rx="20" fill="#FFFFFF"/>
  <rect x="165" y="195" width="160" height="14" rx="7" fill="#2563EB" fill-opacity="0.35"/>
  <rect x="165" y="227" width="120" height="12" rx="6" fill="#94A3B8" fill-opacity="0.55"/>
  <rect x="165" y="274" width="160" height="54" rx="16" fill="#FFFFFF"/>
  <rect x="165" y="346" width="160" height="54" rx="16" fill="#FFFFFF"/>
  <rect x="165" y="418" width="160" height="54" rx="16" fill="#FFFFFF"/>
  <rect x="420" y="195" width="260" height="16" rx="8" fill="#0F172A" fill-opacity="0.78"/>
  <rect x="420" y="225" width="180" height="12" rx="6" fill="#64748B" fill-opacity="0.55"/>
  <rect x="420" y="315" width="90" height="14" rx="7" fill="#0F766E" fill-opacity="0.55"/>
  <rect x="420" y="345" width="240" height="12" rx="6" fill="#64748B" fill-opacity="0.48"/>
  <rect x="420" y="370" width="210" height="12" rx="6" fill="#64748B" fill-opacity="0.38"/>
  <rect x="775" y="315" width="92" height="14" rx="7" fill="#2563EB" fill-opacity="0.48"/>
  <rect x="775" y="345" width="240" height="12" rx="6" fill="#64748B" fill-opacity="0.48"/>
  <rect x="775" y="370" width="210" height="12" rx="6" fill="#64748B" fill-opacity="0.38"/>
  <rect x="420" y="500" width="150" height="14" rx="7" fill="#0F172A" fill-opacity="0.72"/>
  <rect x="420" y="532" width="600" height="12" rx="6" fill="#64748B" fill-opacity="0.36"/>
  <rect x="420" y="556" width="560" height="12" rx="6" fill="#64748B" fill-opacity="0.28"/>
  <rect x="420" y="590" width="120" height="20" rx="10" fill="#DBEAFE"/>
  <rect x="555" y="590" width="120" height="20" rx="10" fill="#D1FAE5"/>
  <defs>
    <linearGradient id="paint0_linear" x1="60" y1="40" x2="1120" y2="760" gradientUnits="userSpaceOnUse">
      <stop stop-color="#183B73"/>
      <stop offset="1" stop-color="#0F766E"/>
    </linearGradient>
  </defs>
</svg>
